# xmcd
#
# Track frame offsets:
#	150
#	7644
#	23027
#	32202
#	47614
#	64421
#	75900
#	94745
#	107015
#	120706
#	131529
#	144469
#	154192
#
# Disc length: 2326 seconds
#
# Revision: 1
# Processed by: cddbd v1.5.2PL0 Copyright (c) Steve Scherf et al.
# Submitted via: audiograbber 1.83.01
#
DISCID=9a09140d
DTITLE=Ruben Minuto and Matteo Ringressi - 13 Tunes In A Sepia Tone
DYEAR=2013
DGENRE=Folk, World, and Country
TTITLE0=You'll Be Rewarded
TTITLE1=The Sweetest Gift
TTITLE2=Weary Lonesome Blues
TTITLE3=Won't You Come And Sing For Me
TTITLE4=If I Could Hear My Mother Pray Again
TTITLE5=Mole In The Ground
TTITLE6=Wayfarin' Stranger
TTITLE7=Anchored In Love
TTITLE8=Foggy Mountain Top
TTITLE9=Dream Of A Miner's Child
TTITLE10=Wild Bill Jones
TTITLE11=The Angels Rejoiced
TTITLE12=Sunny Side Of Life
EXTD=
EXTT0=
EXTT1=
EXTT2=
EXTT3=
EXTT4=
EXTT5=
EXTT6=
EXTT7=
EXTT8=
EXTT9=
EXTT10=
EXTT11=
EXTT12=
PLAYORDER=
